<svg xmlns="http://www.w3.org/2000/svg" viewBox="0 0 831 181" width="831" height="181">
    <style>
        .bg { fill: #0d1117; }
        .day { rx: 2; ry: 2; }
        .text {
            font-family: -apple-system, BlinkMacSystemFont, "Segoe UI", Helvetica, Arial, sans-serif;
            font-size: 12px;
            fill: #7d8590;
        }
        @keyframes slideDown {
            0% { opacity: 0; transform: translateY(-10px); }
            100% { opacity: 1; transform: translateY(0); }
        }
        .anim {
            opacity: 0;
            animation: slideDown 0.6s ease-out forwards;
        }
    </style>
    <rect class="bg" width="831" height="181" rx="6" />
    <g transform="translate(20, 20)">

        <rect class="day anim" x="0" y="0" width="11" height="11" fill="#161b22" style="animation-delay: 0.0s" />

        <rect class="day anim" x="0" y="15" width="11" height="11" fill="#161b22" style="animation-delay: 0.02s" />

        <rect class="day anim" x="0" y="30" width="11" height="11" fill="#161b22" style="animation-delay: 0.04s" />

        <rect class="day anim" x="0" y="45" width="11" height="11" fill="#161b22" style="animation-delay: 0.06s" />

        <rect class="day anim" x="0" y="60" width="11" height="11" fill="#161b22" style="animation-delay: 0.08s" />

        <rect class="day anim" x="0" y="75" width="11" height="11" fill="#161b22" style="animation-delay: 0.1s" />

        <rect class="day anim" x="0" y="90" width="11" height="11" fill="#161b22" style="animation-delay: 0.12s" />

        <rect class="day anim" x="15" y="0" width="11" height="11" fill="#161b22" style="animation-delay: 0.02s" />

        <rect class="day anim" x="15" y="15" width="11" height="11" fill="#161b22" style="animation-delay: 0.04s" />

        <rect class="day anim" x="15" y="30" width="11" height="11" fill="#161b22" style="animation-delay: 0.06s" />

        <rect class="day anim" x="15" y="45" width="11" height="11" fill="#161b22" style="animation-delay: 0.08s" />

        <rect class="day anim" x="15" y="60" width="11" height="11" fill="#161b22" style="animation-delay: 0.1s" />

        <rect class="day anim" x="15" y="75" width="11" height="11" fill="#161b22" style="animation-delay: 0.12s" />

        <rect class="day anim" x="15" y="90" width="11" height="11" fill="#161b22" style="animation-delay: 0.14s" />

        <rect class="day anim" x="30" y="0" width="11" height="11" fill="#161b22" style="animation-delay: 0.04s" />

        <rect class="day anim" x="30" y="15" width="11" height="11" fill="#161b22" style="animation-delay: 0.06s" />

        <rect class="day anim" x="30" y="30" width="11" height="11" fill="#161b22" style="animation-delay: 0.08s" />

        <rect class="day anim" x="30" y="45" width="11" height="11" fill="#161b22" style="animation-delay: 0.1s" />

        <rect class="day anim" x="30" y="60" width="11" height="11" fill="#161b22" style="animation-delay: 0.12s" />

        <rect class="day anim" x="30" y="75" width="11" height="11" fill="#161b22" style="animation-delay: 0.14s" />

        <rect class="day anim" x="30" y="90" width="11" height="11" fill="#161b22" style="animation-delay: 0.16s" />

        <rect class="day anim" x="45" y="0" width="11" height="11" fill="#161b22" style="animation-delay: 0.06s" />

        <rect class="day anim" x="45" y="15" width="11" height="11" fill="#161b22" style="animation-delay: 0.08s" />

        <rect class="day anim" x="45" y="30" width="11" height="11" fill="#161b22" style="animation-delay: 0.1s" />

        <rect class="day anim" x="45" y="45" width="11" height="11" fill="#161b22" style="animation-delay: 0.12s" />

        <rect class="day anim" x="45" y="60" width="11" height="11" fill="#161b22" style="animation-delay: 0.14s" />

        <rect class="day anim" x="45" y="75" width="11" height="11" fill="#0e4429" style="animation-delay: 0.16s" />

        <rect class="day anim" x="45" y="90" width="11" height="11" fill="#0e4429" style="animation-delay: 0.18s" />

        <rect class="day anim" x="60" y="0" width="11" height="11" fill="#161b22" style="animation-delay: 0.08s" />

        <rect class="day anim" x="60" y="15" width="11" height="11" fill="#39d353" style="animation-delay: 0.1s" />

        <rect class="day anim" x="60" y="30" width="11" height="11" fill="#0e4429" style="animation-delay: 0.12s" />

        <rect class="day anim" x="60" y="45" width="11" height="11" fill="#161b22" style="animation-delay: 0.14s" />

        <rect class="day anim" x="60" y="60" width="11" height="11" fill="#161b22" style="animation-delay: 0.16s" />

        <rect class="day anim" x="60" y="75" width="11" height="11" fill="#161b22" style="animation-delay: 0.18s" />

        <rect class="day anim" x="60" y="90" width="11" height="11" fill="#161b22" style="animation-delay: 0.2s" />

        <rect class="day anim" x="75" y="0" width="11" height="11" fill="#161b22" style="animation-delay: 0.1s" />

        <rect class="day anim" x="75" y="15" width="11" height="11" fill="#161b22" style="animation-delay: 0.12s" />

        <rect class="day anim" x="75" y="30" width="11" height="11" fill="#161b22" style="animation-delay: 0.14s" />

        <rect class="day anim" x="75" y="45" width="11" height="11" fill="#161b22" style="animation-delay: 0.16s" />

        <rect class="day anim" x="75" y="60" width="11" height="11" fill="#161b22" style="animation-delay: 0.18s" />

        <rect class="day anim" x="75" y="75" width="11" height="11" fill="#161b22" style="animation-delay: 0.2s" />

        <rect class="day anim" x="75" y="90" width="11" height="11" fill="#161b22" style="animation-delay: 0.22s" />

        <rect class="day anim" x="90" y="0" width="11" height="11" fill="#161b22" style="animation-delay: 0.12s" />

        <rect class="day anim" x="90" y="15" width="11" height="11" fill="#161b22" style="animation-delay: 0.14s" />

        <rect class="day anim" x="90" y="30" width="11" height="11" fill="#161b22" style="animation-delay: 0.16s" />

        <rect class="day anim" x="90" y="45" width="11" height="11" fill="#0e4429" style="animation-delay: 0.18s" />

        <rect class="day anim" x="90" y="60" width="11" height="11" fill="#0e4429" style="animation-delay: 0.2s" />

        <rect class="day anim" x="90" y="75" width="11" height="11" fill="#006d32" style="animation-delay: 0.22s" />

        <rect class="day anim" x="90" y="90" width="11" height="11" fill="#0e4429" style="animation-delay: 0.24s" />

        <rect class="day anim" x="105" y="0" width="11" height="11" fill="#0e4429" style="animation-delay: 0.14s" />

        <rect class="day anim" x="105" y="15" width="11" height="11" fill="#161b22" style="animation-delay: 0.16s" />

        <rect class="day anim" x="105" y="30" width="11" height="11" fill="#0e4429" style="animation-delay: 0.18s" />

        <rect class="day anim" x="105" y="45" width="11" height="11" fill="#006d32" style="animation-delay: 0.2s" />

        <rect class="day anim" x="105" y="60" width="11" height="11" fill="#161b22" style="animation-delay: 0.22s" />

        <rect class="day anim" x="105" y="75" width="11" height="11" fill="#161b22" style="animation-delay: 0.24s" />

        <rect class="day anim" x="105" y="90" width="11" height="11" fill="#161b22" style="animation-delay: 0.26s" />

        <rect class="day anim" x="120" y="0" width="11" height="11" fill="#161b22" style="animation-delay: 0.16s" />

        <rect class="day anim" x="120" y="15" width="11" height="11" fill="#161b22" style="animation-delay: 0.18s" />

        <rect class="day anim" x="120" y="30" width="11" height="11" fill="#161b22" style="animation-delay: 0.2s" />

        <rect class="day anim" x="120" y="45" width="11" height="11" fill="#161b22" style="animation-delay: 0.22s" />

        <rect class="day anim" x="120" y="60" width="11" height="11" fill="#161b22" style="animation-delay: 0.24s" />

        <rect class="day anim" x="120" y="75" width="11" height="11" fill="#161b22" style="animation-delay: 0.26s" />

        <rect class="day anim" x="120" y="90" width="11" height="11" fill="#161b22" style="animation-delay: 0.28s" />

        <rect class="day anim" x="135" y="0" width="11" height="11" fill="#161b22" style="animation-delay: 0.18s" />

        <rect class="day anim" x="135" y="15" width="11" height="11" fill="#161b22" style="animation-delay: 0.2s" />

        <rect class="day anim" x="135" y="30" width="11" height="11" fill="#161b22" style="animation-delay: 0.22s" />

        <rect class="day anim" x="135" y="45" width="11" height="11" fill="#161b22" style="animation-delay: 0.24s" />

        <rect class="day anim" x="135" y="60" width="11" height="11" fill="#161b22" style="animation-delay: 0.26s" />

        <rect class="day anim" x="135" y="75" width="11" height="11" fill="#161b22" style="animation-delay: 0.28s" />

        <rect class="day anim" x="135" y="90" width="11" height="11" fill="#161b22" style="animation-delay: 0.3s" />

        <rect class="day anim" x="150" y="0" width="11" height="11" fill="#161b22" style="animation-delay: 0.2s" />

        <rect class="day anim" x="150" y="15" width="11" height="11" fill="#161b22" style="animation-delay: 0.22s" />

        <rect class="day anim" x="150" y="30" width="11" height="11" fill="#161b22" style="animation-delay: 0.24s" />

        <rect class="day anim" x="150" y="45" width="11" height="11" fill="#161b22" style="animation-delay: 0.26s" />

        <rect class="day anim" x="150" y="60" width="11" height="11" fill="#0e4429" style="animation-delay: 0.28s" />

        <rect class="day anim" x="150" y="75" width="11" height="11" fill="#161b22" style="animation-delay: 0.3s" />

        <rect class="day anim" x="150" y="90" width="11" height="11" fill="#161b22" style="animation-delay: 0.32s" />

        <rect class="day anim" x="165" y="0" width="11" height="11" fill="#161b22" style="animation-delay: 0.22s" />

        <rect class="day anim" x="165" y="15" width="11" height="11" fill="#161b22" style="animation-delay: 0.24s" />

        <rect class="day anim" x="165" y="30" width="11" height="11" fill="#006d32" style="animation-delay: 0.26s" />

        <rect class="day anim" x="165" y="45" width="11" height="11" fill="#0e4429" style="animation-delay: 0.28s" />

        <rect class="day anim" x="165" y="60" width="11" height="11" fill="#0e4429" style="animation-delay: 0.3s" />

        <rect class="day anim" x="165" y="75" width="11" height="11" fill="#39d353" style="animation-delay: 0.32s" />

        <rect class="day anim" x="165" y="90" width="11" height="11" fill="#161b22" style="animation-delay: 0.34s" />

        <rect class="day anim" x="180" y="0" width="11" height="11" fill="#161b22" style="animation-delay: 0.24s" />

        <rect class="day anim" x="180" y="15" width="11" height="11" fill="#0e4429" style="animation-delay: 0.26s" />

        <rect class="day anim" x="180" y="30" width="11" height="11" fill="#161b22" style="animation-delay: 0.28s" />

        <rect class="day anim" x="180" y="45" width="11" height="11" fill="#161b22" style="animation-delay: 0.3s" />

        <rect class="day anim" x="180" y="60" width="11" height="11" fill="#161b22" style="animation-delay: 0.32s" />

        <rect class="day anim" x="180" y="75" width="11" height="11" fill="#161b22" style="animation-delay: 0.34s" />

        <rect class="day anim" x="180" y="90" width="11" height="11" fill="#161b22" style="animation-delay: 0.36s" />

        <rect class="day anim" x="195" y="0" width="11" height="11" fill="#161b22" style="animation-delay: 0.26s" />

        <rect class="day anim" x="195" y="15" width="11" height="11" fill="#161b22" style="animation-delay: 0.28s" />

        <rect class="day anim" x="195" y="30" width="11" height="11" fill="#161b22" style="animation-delay: 0.3s" />

        <rect class="day anim" x="195" y="45" width="11" height="11" fill="#161b22" style="animation-delay: 0.32s" />

        <rect class="day anim" x="195" y="60" width="11" height="11" fill="#0e4429" style="animation-delay: 0.34s" />

        <rect class="day anim" x="195" y="75" width="11" height="11" fill="#161b22" style="animation-delay: 0.36s" />

        <rect class="day anim" x="195" y="90" width="11" height="11" fill="#0e4429" style="animation-delay: 0.38s" />

        <rect class="day anim" x="210" y="0" width="11" height="11" fill="#161b22" style="animation-delay: 0.28s" />

        <rect class="day anim" x="210" y="15" width="11" height="11" fill="#161b22" style="animation-delay: 0.3s" />

        <rect class="day anim" x="210" y="30" width="11" height="11" fill="#26a641" style="animation-delay: 0.32s" />

        <rect class="day anim" x="210" y="45" width="11" height="11" fill="#0e4429" style="animation-delay: 0.34s" />

        <rect class="day anim" x="210" y="60" width="11" height="11" fill="#0e4429" style="animation-delay: 0.36s" />

        <rect class="day anim" x="210" y="75" width="11" height="11" fill="#161b22" style="animation-delay: 0.38s" />

        <rect class="day anim" x="210" y="90" width="11" height="11" fill="#0e4429" style="animation-delay: 0.4s" />

        <rect class="day anim" x="225" y="0" width="11" height="11" fill="#0e4429" style="animation-delay: 0.3s" />

        <rect class="day anim" x="225" y="15" width="11" height="11" fill="#161b22" style="animation-delay: 0.32s" />

        <rect class="day anim" x="225" y="30" width="11" height="11" fill="#161b22" style="animation-delay: 0.34s" />

        <rect class="day anim" x="225" y="45" width="11" height="11" fill="#161b22" style="animation-delay: 0.36s" />

        <rect class="day anim" x="225" y="60" width="11" height="11" fill="#161b22" style="animation-delay: 0.38s" />

        <rect class="day anim" x="225" y="75" width="11" height="11" fill="#161b22" style="animation-delay: 0.4s" />

        <rect class="day anim" x="225" y="90" width="11" height="11" fill="#161b22" style="animation-delay: 0.42s" />

        <rect class="day anim" x="240" y="0" width="11" height="11" fill="#161b22" style="animation-delay: 0.32s" />

        <rect class="day anim" x="240" y="15" width="11" height="11" fill="#161b22" style="animation-delay: 0.34s" />

        <rect class="day anim" x="240" y="30" width="11" height="11" fill="#161b22" style="animation-delay: 0.36s" />

        <rect class="day anim" x="240" y="45" width="11" height="11" fill="#161b22" style="animation-delay: 0.38s" />

        <rect class="day anim" x="240" y="60" width="11" height="11" fill="#161b22" style="animation-delay: 0.4s" />

        <rect class="day anim" x="240" y="75" width="11" height="11" fill="#161b22" style="animation-delay: 0.42s" />

        <rect class="day anim" x="240" y="90" width="11" height="11" fill="#161b22" style="animation-delay: 0.44s" />

        <rect class="day anim" x="255" y="0" width="11" height="11" fill="#161b22" style="animation-delay: 0.34s" />

        <rect class="day anim" x="255" y="15" width="11" height="11" fill="#161b22" style="animation-delay: 0.36s" />

        <rect class="day anim" x="255" y="30" width="11" height="11" fill="#161b22" style="animation-delay: 0.38s" />

        <rect class="day anim" x="255" y="45" width="11" height="11" fill="#161b22" style="animation-delay: 0.4s" />

        <rect class="day anim" x="255" y="60" width="11" height="11" fill="#161b22" style="animation-delay: 0.42s" />

        <rect class="day anim" x="255" y="75" width="11" height="11" fill="#161b22" style="animation-delay: 0.44s" />

        <rect class="day anim" x="255" y="90" width="11" height="11" fill="#161b22" style="animation-delay: 0.46s" />

        <rect class="day anim" x="270" y="0" width="11" height="11" fill="#161b22" style="animation-delay: 0.36s" />

        <rect class="day anim" x="270" y="15" width="11" height="11" fill="#26a641" style="animation-delay: 0.38s" />

        <rect class="day anim" x="270" y="30" width="11" height="11" fill="#161b22" style="animation-delay: 0.4s" />

        <rect class="day anim" x="270" y="45" width="11" height="11" fill="#161b22" style="animation-delay: 0.42s" />

        <rect class="day anim" x="270" y="60" width="11" height="11" fill="#161b22" style="animation-delay: 0.44s" />

        <rect class="day anim" x="270" y="75" width="11" height="11" fill="#161b22" style="animation-delay: 0.46s" />

        <rect class="day anim" x="270" y="90" width="11" height="11" fill="#0e4429" style="animation-delay: 0.48s" />

        <rect class="day anim" x="285" y="0" width="11" height="11" fill="#006d32" style="animation-delay: 0.38s" />

        <rect class="day anim" x="285" y="15" width="11" height="11" fill="#0e4429" style="animation-delay: 0.4s" />

        <rect class="day anim" x="285" y="30" width="11" height="11" fill="#26a641" style="animation-delay: 0.42s" />

        <rect class="day anim" x="285" y="45" width="11" height="11" fill="#161b22" style="animation-delay: 0.44s" />

        <rect class="day anim" x="285" y="60" width="11" height="11" fill="#161b22" style="animation-delay: 0.46s" />

        <rect class="day anim" x="285" y="75" width="11" height="11" fill="#161b22" style="animation-delay: 0.48s" />

        <rect class="day anim" x="285" y="90" width="11" height="11" fill="#161b22" style="animation-delay: 0.5s" />

        <rect class="day anim" x="300" y="0" width="11" height="11" fill="#161b22" style="animation-delay: 0.4s" />

        <rect class="day anim" x="300" y="15" width="11" height="11" fill="#161b22" style="animation-delay: 0.42s" />

        <rect class="day anim" x="300" y="30" width="11" height="11" fill="#161b22" style="animation-delay: 0.44s" />

        <rect class="day anim" x="300" y="45" width="11" height="11" fill="#161b22" style="animation-delay: 0.46s" />

        <rect class="day anim" x="300" y="60" width="11" height="11" fill="#006d32" style="animation-delay: 0.48s" />

        <rect class="day anim" x="300" y="75" width="11" height="11" fill="#161b22" style="animation-delay: 0.5s" />

        <rect class="day anim" x="300" y="90" width="11" height="11" fill="#161b22" style="animation-delay: 0.52s" />

        <rect class="day anim" x="315" y="0" width="11" height="11" fill="#161b22" style="animation-delay: 0.42s" />

        <rect class="day anim" x="315" y="15" width="11" height="11" fill="#161b22" style="animation-delay: 0.44s" />

        <rect class="day anim" x="315" y="30" width="11" height="11" fill="#161b22" style="animation-delay: 0.46s" />

        <rect class="day anim" x="315" y="45" width="11" height="11" fill="#0e4429" style="animation-delay: 0.48s" />

        <rect class="day anim" x="315" y="60" width="11" height="11" fill="#26a641" style="animation-delay: 0.5s" />

        <rect class="day anim" x="315" y="75" width="11" height="11" fill="#0e4429" style="animation-delay: 0.52s" />

        <rect class="day anim" x="315" y="90" width="11" height="11" fill="#0e4429" style="animation-delay: 0.54s" />

        <rect class="day anim" x="330" y="0" width="11" height="11" fill="#0e4429" style="animation-delay: 0.44s" />

        <rect class="day anim" x="330" y="15" width="11" height="11" fill="#0e4429" style="animation-delay: 0.46s" />

        <rect class="day anim" x="330" y="30" width="11" height="11" fill="#0e4429" style="animation-delay: 0.48s" />

        <rect class="day anim" x="330" y="45" width="11" height="11" fill="#0e4429" style="animation-delay: 0.5s" />

        <rect class="day anim" x="330" y="60" width="11" height="11" fill="#0e4429" style="animation-delay: 0.52s" />

        <rect class="day anim" x="330" y="75" width="11" height="11" fill="#161b22" style="animation-delay: 0.54s" />

        <rect class="day anim" x="330" y="90" width="11" height="11" fill="#161b22" style="animation-delay: 0.56s" />

        <rect class="day anim" x="345" y="0" width="11" height="11" fill="#161b22" style="animation-delay: 0.46s" />

        <rect class="day anim" x="345" y="15" width="11" height="11" fill="#161b22" style="animation-delay: 0.48s" />

        <rect class="day anim" x="345" y="30" width="11" height="11" fill="#161b22" style="animation-delay: 0.5s" />

        <rect class="day anim" x="345" y="45" width="11" height="11" fill="#161b22" style="animation-delay: 0.52s" />

        <rect class="day anim" x="345" y="60" width="11" height="11" fill="#161b22" style="animation-delay: 0.54s" />

        <rect class="day anim" x="345" y="75" width="11" height="11" fill="#161b22" style="animation-delay: 0.56s" />

        <rect class="day anim" x="345" y="90" width="11" height="11" fill="#161b22" style="animation-delay: 0.58s" />

        <rect class="day anim" x="360" y="0" width="11" height="11" fill="#161b22" style="animation-delay: 0.48s" />

        <rect class="day anim" x="360" y="15" width="11" height="11" fill="#161b22" style="animation-delay: 0.5s" />

        <rect class="day anim" x="360" y="30" width="11" height="11" fill="#161b22" style="animation-delay: 0.52s" />

        <rect class="day anim" x="360" y="45" width="11" height="11" fill="#161b22" style="animation-delay: 0.54s" />

        <rect class="day anim" x="360" y="60" width="11" height="11" fill="#161b22" style="animation-delay: 0.56s" />

        <rect class="day anim" x="360" y="75" width="11" height="11" fill="#161b22" style="animation-delay: 0.58s" />

        <rect class="day anim" x="360" y="90" width="11" height="11" fill="#161b22" style="animation-delay: 0.6s" />

        <rect class="day anim" x="375" y="0" width="11" height="11" fill="#161b22" style="animation-delay: 0.5s" />

        <rect class="day anim" x="375" y="15" width="11" height="11" fill="#161b22" style="animation-delay: 0.52s" />

        <rect class="day anim" x="375" y="30" width="11" height="11" fill="#161b22" style="animation-delay: 0.54s" />

        <rect class="day anim" x="375" y="45" width="11" height="11" fill="#161b22" style="animation-delay: 0.56s" />

        <rect class="day anim" x="375" y="60" width="11" height="11" fill="#161b22" style="animation-delay: 0.58s" />

        <rect class="day anim" x="375" y="75" width="11" height="11" fill="#161b22" style="animation-delay: 0.6s" />

        <rect class="day anim" x="375" y="90" width="11" height="11" fill="#161b22" style="animation-delay: 0.62s" />

        <rect class="day anim" x="390" y="0" width="11" height="11" fill="#161b22" style="animation-delay: 0.52s" />

        <rect class="day anim" x="390" y="15" width="11" height="11" fill="#161b22" style="animation-delay: 0.54s" />

        <rect class="day anim" x="390" y="30" width="11" height="11" fill="#26a641" style="animation-delay: 0.56s" />

        <rect class="day anim" x="390" y="45" width="11" height="11" fill="#161b22" style="animation-delay: 0.58s" />

        <rect class="day anim" x="390" y="60" width="11" height="11" fill="#161b22" style="animation-delay: 0.6s" />

        <rect class="day anim" x="390" y="75" width="11" height="11" fill="#161b22" style="animation-delay: 0.62s" />

        <rect class="day anim" x="390" y="90" width="11" height="11" fill="#0e4429" style="animation-delay: 0.64s" />

        <rect class="day anim" x="405" y="0" width="11" height="11" fill="#161b22" style="animation-delay: 0.54s" />

        <rect class="day anim" x="405" y="15" width="11" height="11" fill="#161b22" style="animation-delay: 0.56s" />

        <rect class="day anim" x="405" y="30" width="11" height="11" fill="#161b22" style="animation-delay: 0.58s" />

        <rect class="day anim" x="405" y="45" width="11" height="11" fill="#161b22" style="animation-delay: 0.6s" />

        <rect class="day anim" x="405" y="60" width="11" height="11" fill="#161b22" style="animation-delay: 0.62s" />

        <rect class="day anim" x="405" y="75" width="11" height="11" fill="#161b22" style="animation-delay: 0.64s" />

        <rect class="day anim" x="405" y="90" width="11" height="11" fill="#0e4429" style="animation-delay: 0.66s" />

        <rect class="day anim" x="420" y="0" width="11" height="11" fill="#161b22" style="animation-delay: 0.56s" />

        <rect class="day anim" x="420" y="15" width="11" height="11" fill="#161b22" style="animation-delay: 0.58s" />

        <rect class="day anim" x="420" y="30" width="11" height="11" fill="#161b22" style="animation-delay: 0.6s" />

        <rect class="day anim" x="420" y="45" width="11" height="11" fill="#161b22" style="animation-delay: 0.62s" />

        <rect class="day anim" x="420" y="60" width="11" height="11" fill="#0e4429" style="animation-delay: 0.64s" />

        <rect class="day anim" x="420" y="75" width="11" height="11" fill="#161b22" style="animation-delay: 0.66s" />

        <rect class="day anim" x="420" y="90" width="11" height="11" fill="#0e4429" style="animation-delay: 0.68s" />

        <rect class="day anim" x="435" y="0" width="11" height="11" fill="#161b22" style="animation-delay: 0.58s" />

        <rect class="day anim" x="435" y="15" width="11" height="11" fill="#0e4429" style="animation-delay: 0.6s" />

        <rect class="day anim" x="435" y="30" width="11" height="11" fill="#161b22" style="animation-delay: 0.62s" />

        <rect class="day anim" x="435" y="45" width="11" height="11" fill="#161b22" style="animation-delay: 0.64s" />

        <rect class="day anim" x="435" y="60" width="11" height="11" fill="#006d32" style="animation-delay: 0.66s" />

        <rect class="day anim" x="435" y="75" width="11" height="11" fill="#161b22" style="animation-delay: 0.68s" />

        <rect class="day anim" x="435" y="90" width="11" height="11" fill="#0e4429" style="animation-delay: 0.7000000000000001s" />

        <rect class="day anim" x="450" y="0" width="11" height="11" fill="#0e4429" style="animation-delay: 0.6s" />

        <rect class="day anim" x="450" y="15" width="11" height="11" fill="#0e4429" style="animation-delay: 0.62s" />

        <rect class="day anim" x="450" y="30" width="11" height="11" fill="#161b22" style="animation-delay: 0.64s" />

        <rect class="day anim" x="450" y="45" width="11" height="11" fill="#161b22" style="animation-delay: 0.66s" />

        <rect class="day anim" x="450" y="60" width="11" height="11" fill="#161b22" style="animation-delay: 0.68s" />

        <rect class="day anim" x="450" y="75" width="11" height="11" fill="#161b22" style="animation-delay: 0.7000000000000001s" />

        <rect class="day anim" x="450" y="90" width="11" height="11" fill="#161b22" style="animation-delay: 0.72s" />

        <rect class="day anim" x="465" y="0" width="11" height="11" fill="#161b22" style="animation-delay: 0.62s" />

        <rect class="day anim" x="465" y="15" width="11" height="11" fill="#161b22" style="animation-delay: 0.64s" />

        <rect class="day anim" x="465" y="30" width="11" height="11" fill="#161b22" style="animation-delay: 0.66s" />

        <rect class="day anim" x="465" y="45" width="11" height="11" fill="#161b22" style="animation-delay: 0.68s" />

        <rect class="day anim" x="465" y="60" width="11" height="11" fill="#161b22" style="animation-delay: 0.7000000000000001s" />

        <rect class="day anim" x="465" y="75" width="11" height="11" fill="#161b22" style="animation-delay: 0.72s" />

        <rect class="day anim" x="465" y="90" width="11" height="11" fill="#161b22" style="animation-delay: 0.74s" />

        <rect class="day anim" x="480" y="0" width="11" height="11" fill="#161b22" style="animation-delay: 0.64s" />

        <rect class="day anim" x="480" y="15" width="11" height="11" fill="#161b22" style="animation-delay: 0.66s" />

        <rect class="day anim" x="480" y="30" width="11" height="11" fill="#161b22" style="animation-delay: 0.68s" />

        <rect class="day anim" x="480" y="45" width="11" height="11" fill="#161b22" style="animation-delay: 0.7000000000000001s" />

        <rect class="day anim" x="480" y="60" width="11" height="11" fill="#161b22" style="animation-delay: 0.72s" />

        <rect class="day anim" x="480" y="75" width="11" height="11" fill="#161b22" style="animation-delay: 0.74s" />

        <rect class="day anim" x="480" y="90" width="11" height="11" fill="#161b22" style="animation-delay: 0.76s" />

        <rect class="day anim" x="495" y="0" width="11" height="11" fill="#161b22" style="animation-delay: 0.66s" />

        <rect class="day anim" x="495" y="15" width="11" height="11" fill="#161b22" style="animation-delay: 0.68s" />

        <rect class="day anim" x="495" y="30" width="11" height="11" fill="#161b22" style="animation-delay: 0.7000000000000001s" />

        <rect class="day anim" x="495" y="45" width="11" height="11" fill="#161b22" style="animation-delay: 0.72s" />

        <rect class="day anim" x="495" y="60" width="11" height="11" fill="#161b22" style="animation-delay: 0.74s" />

        <rect class="day anim" x="495" y="75" width="11" height="11" fill="#161b22" style="animation-delay: 0.76s" />

        <rect class="day anim" x="495" y="90" width="11" height="11" fill="#26a641" style="animation-delay: 0.78s" />

        <rect class="day anim" x="510" y="0" width="11" height="11" fill="#161b22" style="animation-delay: 0.68s" />

        <rect class="day anim" x="510" y="15" width="11" height="11" fill="#0e4429" style="animation-delay: 0.7000000000000001s" />

        <rect class="day anim" x="510" y="30" width="11" height="11" fill="#161b22" style="animation-delay: 0.72s" />

        <rect class="day anim" x="510" y="45" width="11" height="11" fill="#161b22" style="animation-delay: 0.74s" />

        <rect class="day anim" x="510" y="60" width="11" height="11" fill="#26a641" style="animation-delay: 0.76s" />

        <rect class="day anim" x="510" y="75" width="11" height="11" fill="#161b22" style="animation-delay: 0.78s" />

        <rect class="day anim" x="510" y="90" width="11" height="11" fill="#0e4429" style="animation-delay: 0.8s" />

        <rect class="day anim" x="525" y="0" width="11" height="11" fill="#161b22" style="animation-delay: 0.7000000000000001s" />

        <rect class="day anim" x="525" y="15" width="11" height="11" fill="#161b22" style="animation-delay: 0.72s" />

        <rect class="day anim" x="525" y="30" width="11" height="11" fill="#0e4429" style="animation-delay: 0.74s" />

        <rect class="day anim" x="525" y="45" width="11" height="11" fill="#161b22" style="animation-delay: 0.76s" />

        <rect class="day anim" x="525" y="60" width="11" height="11" fill="#161b22" style="animation-delay: 0.78s" />

        <rect class="day anim" x="525" y="75" width="11" height="11" fill="#0e4429" style="animation-delay: 0.8s" />

        <rect class="day anim" x="525" y="90" width="11" height="11" fill="#161b22" style="animation-delay: 0.8200000000000001s" />

        <rect class="day anim" x="540" y="0" width="11" height="11" fill="#161b22" style="animation-delay: 0.72s" />

        <rect class="day anim" x="540" y="15" width="11" height="11" fill="#161b22" style="animation-delay: 0.74s" />

        <rect class="day anim" x="540" y="30" width="11" height="11" fill="#0e4429" style="animation-delay: 0.76s" />

        <rect class="day anim" x="540" y="45" width="11" height="11" fill="#006d32" style="animation-delay: 0.78s" />

        <rect class="day anim" x="540" y="60" width="11" height="11" fill="#161b22" style="animation-delay: 0.8s" />

        <rect class="day anim" x="540" y="75" width="11" height="11" fill="#0e4429" style="animation-delay: 0.8200000000000001s" />

        <rect class="day anim" x="540" y="90" width="11" height="11" fill="#0e4429" style="animation-delay: 0.84s" />

        <rect class="day anim" x="555" y="0" width="11" height="11" fill="#39d353" style="animation-delay: 0.74s" />

        <rect class="day anim" x="555" y="15" width="11" height="11" fill="#0e4429" style="animation-delay: 0.76s" />

        <rect class="day anim" x="555" y="30" width="11" height="11" fill="#161b22" style="animation-delay: 0.78s" />

        <rect class="day anim" x="555" y="45" width="11" height="11" fill="#161b22" style="animation-delay: 0.8s" />

        <rect class="day anim" x="555" y="60" width="11" height="11" fill="#0e4429" style="animation-delay: 0.8200000000000001s" />

        <rect class="day anim" x="555" y="75" width="11" height="11" fill="#0e4429" style="animation-delay: 0.84s" />

        <rect class="day anim" x="555" y="90" width="11" height="11" fill="#161b22" style="animation-delay: 0.86s" />

        <rect class="day anim" x="570" y="0" width="11" height="11" fill="#161b22" style="animation-delay: 0.76s" />

        <rect class="day anim" x="570" y="15" width="11" height="11" fill="#161b22" style="animation-delay: 0.78s" />

        <rect class="day anim" x="570" y="30" width="11" height="11" fill="#161b22" style="animation-delay: 0.8s" />

        <rect class="day anim" x="570" y="45" width="11" height="11" fill="#161b22" style="animation-delay: 0.8200000000000001s" />

        <rect class="day anim" x="570" y="60" width="11" height="11" fill="#161b22" style="animation-delay: 0.84s" />

        <rect class="day anim" x="570" y="75" width="11" height="11" fill="#161b22" style="animation-delay: 0.86s" />

        <rect class="day anim" x="570" y="90" width="11" height="11" fill="#161b22" style="animation-delay: 0.88s" />

        <rect class="day anim" x="585" y="0" width="11" height="11" fill="#161b22" style="animation-delay: 0.78s" />

        <rect class="day anim" x="585" y="15" width="11" height="11" fill="#161b22" style="animation-delay: 0.8s" />

        <rect class="day anim" x="585" y="30" width="11" height="11" fill="#161b22" style="animation-delay: 0.8200000000000001s" />

        <rect class="day anim" x="585" y="45" width="11" height="11" fill="#161b22" style="animation-delay: 0.84s" />

        <rect class="day anim" x="585" y="60" width="11" height="11" fill="#161b22" style="animation-delay: 0.86s" />

        <rect class="day anim" x="585" y="75" width="11" height="11" fill="#161b22" style="animation-delay: 0.88s" />

        <rect class="day anim" x="585" y="90" width="11" height="11" fill="#161b22" style="animation-delay: 0.9s" />

        <rect class="day anim" x="600" y="0" width="11" height="11" fill="#161b22" style="animation-delay: 0.8s" />

        <rect class="day anim" x="600" y="15" width="11" height="11" fill="#161b22" style="animation-delay: 0.8200000000000001s" />

        <rect class="day anim" x="600" y="30" width="11" height="11" fill="#161b22" style="animation-delay: 0.84s" />

        <rect class="day anim" x="600" y="45" width="11" height="11" fill="#161b22" style="animation-delay: 0.86s" />

        <rect class="day anim" x="600" y="60" width="11" height="11" fill="#161b22" style="animation-delay: 0.88s" />

        <rect class="day anim" x="600" y="75" width="11" height="11" fill="#161b22" style="animation-delay: 0.9s" />

        <rect class="day anim" x="600" y="90" width="11" height="11" fill="#161b22" style="animation-delay: 0.92s" />

        <rect class="day anim" x="615" y="0" width="11" height="11" fill="#161b22" style="animation-delay: 0.8200000000000001s" />

        <rect class="day anim" x="615" y="15" width="11" height="11" fill="#161b22" style="animation-delay: 0.84s" />

        <rect class="day anim" x="615" y="30" width="11" height="11" fill="#161b22" style="animation-delay: 0.86s" />

        <rect class="day anim" x="615" y="45" width="11" height="11" fill="#006d32" style="animation-delay: 0.88s" />

        <rect class="day anim" x="615" y="60" width="11" height="11" fill="#0e4429" style="animation-delay: 0.9s" />

        <rect class="day anim" x="615" y="75" width="11" height="11" fill="#161b22" style="animation-delay: 0.92s" />

        <rect class="day anim" x="615" y="90" width="11" height="11" fill="#161b22" style="animation-delay: 0.9400000000000001s" />

        <rect class="day anim" x="630" y="0" width="11" height="11" fill="#161b22" style="animation-delay: 0.84s" />

        <rect class="day anim" x="630" y="15" width="11" height="11" fill="#161b22" style="animation-delay: 0.86s" />

        <rect class="day anim" x="630" y="30" width="11" height="11" fill="#161b22" style="animation-delay: 0.88s" />

        <rect class="day anim" x="630" y="45" width="11" height="11" fill="#0e4429" style="animation-delay: 0.9s" />

        <rect class="day anim" x="630" y="60" width="11" height="11" fill="#0e4429" style="animation-delay: 0.92s" />

        <rect class="day anim" x="630" y="75" width="11" height="11" fill="#161b22" style="animation-delay: 0.9400000000000001s" />

        <rect class="day anim" x="630" y="90" width="11" height="11" fill="#161b22" style="animation-delay: 0.96s" />

        <rect class="day anim" x="645" y="0" width="11" height="11" fill="#161b22" style="animation-delay: 0.86s" />

        <rect class="day anim" x="645" y="15" width="11" height="11" fill="#161b22" style="animation-delay: 0.88s" />

        <rect class="day anim" x="645" y="30" width="11" height="11" fill="#161b22" style="animation-delay: 0.9s" />

        <rect class="day anim" x="645" y="45" width="11" height="11" fill="#161b22" style="animation-delay: 0.92s" />

        <rect class="day anim" x="645" y="60" width="11" height="11" fill="#161b22" style="animation-delay: 0.9400000000000001s" />

        <rect class="day anim" x="645" y="75" width="11" height="11" fill="#39d353" style="animation-delay: 0.96s" />

        <rect class="day anim" x="645" y="90" width="11" height="11" fill="#161b22" style="animation-delay: 0.98s" />

        <rect class="day anim" x="660" y="0" width="11" height="11" fill="#0e4429" style="animation-delay: 0.88s" />

        <rect class="day anim" x="660" y="15" width="11" height="11" fill="#161b22" style="animation-delay: 0.9s" />

        <rect class="day anim" x="660" y="30" width="11" height="11" fill="#161b22" style="animation-delay: 0.92s" />

        <rect class="day anim" x="660" y="45" width="11" height="11" fill="#161b22" style="animation-delay: 0.9400000000000001s" />

        <rect class="day anim" x="660" y="60" width="11" height="11" fill="#0e4429" style="animation-delay: 0.96s" />

        <rect class="day anim" x="660" y="75" width="11" height="11" fill="#006d32" style="animation-delay: 0.98s" />

        <rect class="day anim" x="660" y="90" width="11" height="11" fill="#161b22" style="animation-delay: 1.0s" />

        <rect class="day anim" x="675" y="0" width="11" height="11" fill="#0e4429" style="animation-delay: 0.9s" />

        <rect class="day anim" x="675" y="15" width="11" height="11" fill="#161b22" style="animation-delay: 0.92s" />

        <rect class="day anim" x="675" y="30" width="11" height="11" fill="#161b22" style="animation-delay: 0.9400000000000001s" />

        <rect class="day anim" x="675" y="45" width="11" height="11" fill="#161b22" style="animation-delay: 0.96s" />

        <rect class="day anim" x="675" y="60" width="11" height="11" fill="#161b22" style="animation-delay: 0.98s" />

        <rect class="day anim" x="675" y="75" width="11" height="11" fill="#161b22" style="animation-delay: 1.0s" />

        <rect class="day anim" x="675" y="90" width="11" height="11" fill="#161b22" style="animation-delay: 1.02s" />

        <rect class="day anim" x="690" y="0" width="11" height="11" fill="#161b22" style="animation-delay: 0.92s" />

        <rect class="day anim" x="690" y="15" width="11" height="11" fill="#161b22" style="animation-delay: 0.9400000000000001s" />

        <rect class="day anim" x="690" y="30" width="11" height="11" fill="#161b22" style="animation-delay: 0.96s" />

        <rect class="day anim" x="690" y="45" width="11" height="11" fill="#161b22" style="animation-delay: 0.98s" />

        <rect class="day anim" x="690" y="60" width="11" height="11" fill="#161b22" style="animation-delay: 1.0s" />

        <rect class="day anim" x="690" y="75" width="11" height="11" fill="#161b22" style="animation-delay: 1.02s" />

        <rect class="day anim" x="690" y="90" width="11" height="11" fill="#161b22" style="animation-delay: 1.04s" />

        <rect class="day anim" x="705" y="0" width="11" height="11" fill="#161b22" style="animation-delay: 0.9400000000000001s" />

        <rect class="day anim" x="705" y="15" width="11" height="11" fill="#161b22" style="animation-delay: 0.96s" />

        <rect class="day anim" x="705" y="30" width="11" height="11" fill="#161b22" style="animation-delay: 0.98s" />

        <rect class="day anim" x="705" y="45" width="11" height="11" fill="#161b22" style="animation-delay: 1.0s" />

        <rect class="day anim" x="705" y="60" width="11" height="11" fill="#161b22" style="animation-delay: 1.02s" />

        <rect class="day anim" x="705" y="75" width="11" height="11" fill="#161b22" style="animation-delay: 1.04s" />

        <rect class="day anim" x="705" y="90" width="11" height="11" fill="#161b22" style="animation-delay: 1.06s" />

        <rect class="day anim" x="720" y="0" width="11" height="11" fill="#161b22" style="animation-delay: 0.96s" />

        <rect class="day anim" x="720" y="15" width="11" height="11" fill="#161b22" style="animation-delay: 0.98s" />

        <rect class="day anim" x="720" y="30" width="11" height="11" fill="#161b22" style="animation-delay: 1.0s" />

        <rect class="day anim" x="720" y="45" width="11" height="11" fill="#161b22" style="animation-delay: 1.02s" />

        <rect class="day anim" x="720" y="60" width="11" height="11" fill="#39d353" style="animation-delay: 1.04s" />

        <rect class="day anim" x="720" y="75" width="11" height="11" fill="#161b22" style="animation-delay: 1.06s" />

        <rect class="day anim" x="720" y="90" width="11" height="11" fill="#161b22" style="animation-delay: 1.08s" />

        <rect class="day anim" x="735" y="0" width="11" height="11" fill="#161b22" style="animation-delay: 0.98s" />

        <rect class="day anim" x="735" y="15" width="11" height="11" fill="#161b22" style="animation-delay: 1.0s" />

        <rect class="day anim" x="735" y="30" width="11" height="11" fill="#006d32" style="animation-delay: 1.02s" />

        <rect class="day anim" x="735" y="45" width="11" height="11" fill="#0e4429" style="animation-delay: 1.04s" />

        <rect class="day anim" x="735" y="60" width="11" height="11" fill="#0e4429" style="animation-delay: 1.06s" />

        <rect class="day anim" x="735" y="75" width="11" height="11" fill="#0e4429" style="animation-delay: 1.08s" />

        <rect class="day anim" x="735" y="90" width="11" height="11" fill="#006d32" style="animation-delay: 1.1s" />

        <rect class="day anim" x="750" y="0" width="11" height="11" fill="#0e4429" style="animation-delay: 1.0s" />

        <rect class="day anim" x="750" y="15" width="11" height="11" fill="#006d32" style="animation-delay: 1.02s" />

        <rect class="day anim" x="750" y="30" width="11" height="11" fill="#161b22" style="animation-delay: 1.04s" />

        <rect class="day anim" x="750" y="45" width="11" height="11" fill="#0e4429" style="animation-delay: 1.06s" />

        <rect class="day anim" x="750" y="60" width="11" height="11" fill="#161b22" style="animation-delay: 1.08s" />

        <rect class="day anim" x="750" y="75" width="11" height="11" fill="#161b22" style="animation-delay: 1.1s" />

        <rect class="day anim" x="750" y="90" width="11" height="11" fill="#161b22" style="animation-delay: 1.12s" />

        <rect class="day anim" x="765" y="0" width="11" height="11" fill="#161b22" style="animation-delay: 1.02s" />

        <rect class="day anim" x="765" y="15" width="11" height="11" fill="#161b22" style="animation-delay: 1.04s" />

        <rect class="day anim" x="765" y="30" width="11" height="11" fill="#161b22" style="animation-delay: 1.06s" />

        <rect class="day anim" x="765" y="45" width="11" height="11" fill="#161b22" style="animation-delay: 1.08s" />

        <rect class="day anim" x="765" y="60" width="11" height="11" fill="#0e4429" style="animation-delay: 1.1s" />

        <rect class="day anim" x="765" y="75" width="11" height="11" fill="#161b22" style="animation-delay: 1.12s" />

        <rect class="day anim" x="765" y="90" width="11" height="11" fill="#161b22" style="animation-delay: 1.1400000000000001s" />

        <rect class="day anim" x="780" y="0" width="11" height="11" fill="#0e4429" style="animation-delay: 1.04s" />

        <rect class="day anim" x="780" y="15" width="11" height="11" fill="#26a641" style="animation-delay: 1.06s" />

        <rect class="day anim" x="780" y="30" width="11" height="11" fill="#0e4429" style="animation-delay: 1.08s" />

        <rect class="day anim" x="780" y="45" width="11" height="11" fill="#161b22" style="animation-delay: 1.1s" />

        <rect class="day anim" x="780" y="60" width="11" height="11" fill="#26a641" style="animation-delay: 1.12s" />

        <rect class="day anim" x="780" y="75" width="11" height="11" fill="#39d353" style="animation-delay: 1.1400000000000001s" />

        <text class="text anim" x="0" y="125" style="animation-delay: 1.5s">297 contributions in the last year</text>
        <text class="text anim" x="646" y="125" style="animation-delay: 1.5s">Less</text><rect class="day anim" x="681" y="116" width="11" height="11" fill="#161b22" style="animation-delay: 1.5s" /><rect class="day anim" x="696" y="116" width="11" height="11" fill="#0e4429" style="animation-delay: 1.5s" /><rect class="day anim" x="711" y="116" width="11" height="11" fill="#006d32" style="animation-delay: 1.5s" /><rect class="day anim" x="726" y="116" width="11" height="11" fill="#26a641" style="animation-delay: 1.5s" /><rect class="day anim" x="741" y="116" width="11" height="11" fill="#39d353" style="animation-delay: 1.5s" /><text class="text anim" x="756" y="125" style="animation-delay: 1.5s">More</text>
    </g>
</svg>